<?xml version="1.0" encoding="iso-8859-1"?>
<!-- Generator: Adobe Illustrator 19.0.0, SVG Export Plug-In . SVG Version: 6.00 Build 0)  -->
<svg xmlns="http://www.w3.org/2000/svg" xmlns:xlink="http://www.w3.org/1999/xlink" version="1.1" id="Layer_1" x="0px" y="0px" viewBox="0 0 512.001 512.001" style="enable-background:new 0 0 512.001 512.001;" xml:space="preserve" width="512px" height="512px">
<g>
	<g>
		<path d="M512.001,307.293H512c0-27.641-29.16-37.533-38.742-40.785c-27.864-9.454-61.502-24.144-97.192-39.838l0.733-1.396    c4.21-8.024,1.107-17.979-6.918-22.19l-10.279-5.392c-3.878-2.035-8.328-2.434-12.524-1.127c-3.974,1.239-7.245,3.877-9.312,7.443    c1.915-7.244-1.332-15.127-8.242-18.753l-10.278-5.392c-3.88-2.037-8.328-2.435-12.525-1.128c-4.198,1.309-7.63,4.165-9.665,8.045    l-13.793,26.289c-2.035,3.878-2.435,8.326-1.127,12.524c1.309,4.198,4.165,7.63,8.045,9.665l10.28,5.393    c2.431,1.275,5.036,1.879,7.607,1.879c5.688,0,11.193-2.964,14.22-8.163c-0.776,2.948-0.728,6.064,0.205,9.055    c1.309,4.199,4.166,7.632,8.044,9.664l10.28,5.394c2.431,1.275,5.036,1.879,7.607,1.879c5.919,0,11.647-3.202,14.582-8.797    l5.971-11.379c24.884,10.944,48.801,21.421,70.629,30.071c-10.056,5.709-25.589,13.23-44.033,17.77    c-42.977,10.576-80.328,0.376-111.026-30.323c-17.655-17.654-43.714-27.835-77.456-30.258    c-26.197-1.884-57.185,0.877-92.101,8.204c-43.611,9.151-81.914,22.939-99.767,29.865v-97.154c0-6.93,2.724-13.45,7.669-18.357    c4.943-4.906,11.497-7.607,18.458-7.607c0.008,0,0.016,0,0.024,0c6.99,0.006,14.605,0.375,22.713,1.098    c0.138,2.835,0.426,5.63,0.844,8.383c0.033,0.291,0.083,0.581,0.15,0.867c6.387,39.223,40.483,69.267,81.483,69.267    c25.798,0,49.811-12.141,65.253-32.023c0.079-0.098,0.157-0.196,0.231-0.297c2.43-3.158,4.651-6.501,6.622-10.029    c7.928,2.59,16.068,5.398,24.578,8.476c0.021,0.008,0.042,0.015,0.062,0.022c0.001,0,0.001,0,0.002,0.001    c0.572,0.207,1.147,0.415,1.722,0.625l-2.947,5.616c-2.035,3.878-2.435,8.326-1.127,12.524c1.309,4.199,4.165,7.631,8.045,9.666    l10.279,5.392c2.381,1.248,4.976,1.882,7.596,1.882c1.648,0,3.307-0.251,4.926-0.755c4.198-1.309,7.63-4.165,9.665-8.045    l13.793-26.289c4.21-8.025,1.107-17.98-6.918-22.19l-10.279-5.392c-3.878-2.035-8.326-2.436-12.525-1.125    c-4.198,1.309-7.629,4.165-9.664,8.045l-3.71,7.072c-1.01-0.37-2.012-0.734-3.011-1.096c-6.107-4.088-52.066-40.108-80.276-62.387    c-1.718-1.358-3.941-1.907-6.092-1.513c-2.154,0.396-4.033,1.7-5.157,3.579l-16.598,27.737c-2.068,3.456-1.086,7.924,2.24,10.195    l41.415,28.269c-51.378,1.881-94.546-25.816-105.071-33.184c-0.264-2.415-0.409-4.864-0.409-7.349    c0-0.809,0.031-1.612,0.061-2.412l0.006-0.142c0.147-3.989-2.811-7.413-6.777-7.846c-11.199-1.228-21.668-1.854-31.115-1.862    c-0.014,0-0.024,0-0.039,0c-11.004,0-21.367,4.27-29.18,12.024C4.321,146.983,0,157.34,0,168.358v108.406c0,0.025,0,0.051,0,0.076    v74.547c0,1.276,0.318,2.475,0.872,3.531C0.316,356.563,0,358.318,0,360.148v6.341c0,19.546,15.902,35.448,35.448,35.448h422.027    c47.441,0,54.525-26.182,54.525-41.789c0-6.867-4.254-12.75-10.262-15.178c6.38-7.256,10.262-16.76,10.262-27.159V307.293z     M322.963,200.373l-13.792,26.288c-0.299,0.571-1.065,0.81-1.636,0.51l-10.279-5.393c-0.356-0.187-0.514-0.491-0.584-0.714    c-0.069-0.223-0.113-0.564,0.074-0.921l13.793-26.289c0.187-0.356,0.491-0.514,0.715-0.584c0.105-0.033,0.234-0.06,0.382-0.06    c0.164,0,0.349,0.035,0.538,0.134l10.279,5.392c0.356,0.187,0.514,0.491,0.584,0.716    C323.106,199.676,323.15,200.017,322.963,200.373z M363.319,218.203l-13.793,26.288c-0.298,0.571-1.066,0.81-1.635,0.51    l-10.28-5.394c-0.356-0.188-0.514-0.491-0.583-0.714c-0.069-0.223-0.113-0.564,0.074-0.921l13.792-26.289    c0.211-0.402,0.654-0.64,1.096-0.64c0.186,0,0.371,0.042,0.54,0.131l10.278,5.392C363.38,216.866,363.619,217.632,363.319,218.203    z M255.569,201.472l6.617-12.611c0.279-0.421,0.519-0.876,0.714-1.362l6.462-12.315c0.188-0.357,0.492-0.515,0.716-0.584    c0.106-0.032,0.235-0.061,0.382-0.061c0.165,0,0.35,0.034,0.538,0.134l10.279,5.392c0.356,0.187,0.514,0.491,0.584,0.716    c0.069,0.223,0.113,0.564-0.074,0.92l-13.793,26.289c-0.3,0.571-1.068,0.806-1.635,0.509l-10.279-5.392    c-0.356-0.187-0.514-0.491-0.584-0.715C255.426,202.169,255.382,201.828,255.569,201.472z M157.783,143.166l8.467-14.15    c19.373,15.283,33.793,26.583,44.552,34.95c-1.237,0.769-2.268,1.893-2.911,3.305c-1.168,2.569-2.496,5.033-3.952,7.4    L157.783,143.166z M179.245,195.329c1.638,0,3.288-0.036,4.946-0.089c-10.921,7.365-23.966,11.545-37.626,11.545    c-26.592,0-49.628-15.494-60.571-37.926C105.687,180.129,139.598,195.331,179.245,195.329z M15.223,281.89    c13.603-5.444,55.512-21.401,102.893-31.343c51.94-10.898,121.109-16.639,155.666,17.92c25.658,25.657,56.442,38.755,90.39,38.755    c11.35,0,23.056-1.464,35.037-4.415c28.414-6.993,50.196-20.253,58.342-25.7c3.682,1.345,7.293,2.624,10.815,3.819    c19.647,6.665,28.409,14.797,28.409,26.367v10.518c0,14.316-11.648,25.964-25.964,25.964H16.371h-1.148V281.89z M457.476,386.713    H35.448c-11.152,0-20.225-9.073-20.225-20.225v-6.341c0-0.612,0.536-1.149,1.148-1.149h454.441h24.816    c0.612,0,1.148,0.537,1.148,1.149C496.777,366.719,496.777,386.713,457.476,386.713z" fill="#eef5db"/>
	</g>
</g>
<g>
</g>
<g>
</g>
<g>
</g>
<g>
</g>
<g>
</g>
<g>
</g>
<g>
</g>
<g>
</g>
<g>
</g>
<g>
</g>
<g>
</g>
<g>
</g>
<g>
</g>
<g>
</g>
<g>
</g>
</svg>
